<?xml version="1.0" encoding="UTF-8"?>
<svg version="1.1" xmlns="http://www.w3.org/2000/svg" width="3586" height="1169">
<path d="M0 0 C1183.38 0 2366.76 0 3586 0 C3586 385.77 3586 771.54 3586 1169 C2402.62 1169 1219.24 1169 0 1169 C0 783.23 0 397.46 0 0 Z " fill="#171A1F" transform="translate(0,0)"/>
<path d="M0 0 C2 0 2 0 4.10546875 2.0078125 C4.54552246 2.46575195 4.98557617 2.92369141 5.43896484 3.39550781 C8.62084729 6.66596941 11.9901804 9.74845473 15.3125 12.875 C16.3943457 13.89787109 16.3943457 13.89787109 17.49804688 14.94140625 C21.65296556 18.85410995 25.86995703 22.67403572 30.18041992 26.41455078 C32.65570479 28.57133328 35.0787141 30.78291894 37.5 33 C40.61907011 35.84524228 43.74755391 38.6719958 46.9375 41.4375 C50.88589474 44.86700919 54.72857458 48.40876823 58.57568359 51.95068359 C61.98962553 55.08848994 65.44767894 58.1645454 68.953125 61.19921875 C71.44074726 63.38775665 73.87353452 65.63239191 76.3125 67.875 C79.99013168 71.23726077 83.73688312 74.44656857 87.625 77.5625 C91.99652465 81.08832429 95.9521489 84.84618751 99.87109375 88.86328125 C104.59233862 93.60185179 109.73174196 97.8841734 115 102 C117.96325944 100.64891034 120.20785165 99.11293352 122.625 96.9375 C123.66914062 96.00357422 123.66914062 96.00357422 124.734375 95.05078125 C125.48203125 94.37402344 126.2296875 93.69726562 127 93 C127.78890625 92.29230469 128.5778125 91.58460938 129.390625 90.85546875 C131.93105092 88.57467755 134.46617486 86.28812088 137 84 C146.4849537 75.43479938 146.4849537 75.43479938 151 71.5 C158.33669648 65.10240067 165.51644443 58.53297021 172.6809082 51.9440918 C175.40249494 49.4465688 178.14418996 46.97944827 180.9375 44.5625 C184.40735202 41.5576797 187.76657689 38.44040412 191.125 35.3125 C195.63768265 31.11502219 200.23439245 27.04514552 204.9375 23.0625 C216.65771893 13.13427758 216.65771893 13.13427758 227.55395508 2.33032227 C229 1 229 1 231 1 C231 127.06 231 253.12 231 383 C226.38 384.98 221.76 386.96 217 389 C212.80438157 390.91534592 212.80438157 390.91534592 208.609375 392.83203125 C197.06354515 398 197.06354515 398 193 398 C192.97563125 390.19520345 192.95851045 382.3904174 192.94818783 374.58559132 C192.9432063 370.95214722 192.93663716 367.31873074 192.92456055 363.68530273 C192.84657981 339.43951195 193.16765857 315.2019599 193.5383265 290.95966411 C193.5966213 287.14669624 193.6547313 283.3337256 193.71264648 279.52075195 C193.72445985 278.74347087 193.73627321 277.96618979 193.74844456 277.16535473 C194.05334733 257.02092559 194.29544428 236.87576152 194.53515625 216.73046875 C194.55715352 214.88728644 194.57915606 213.0441042 194.60116386 211.20092201 C194.7226445 201.01773006 194.84299825 190.83452506 194.96279091 180.65131313 C195.07573282 171.05391607 195.18975912 161.45653197 195.30383885 151.85914838 C195.53702695 132.2394456 195.76897333 112.61972834 196 93 C193.7272612 93.1106275 191.4552252 93.23576962 189.18359375 93.3671875 C187.28565063 93.46942627 187.28565063 93.46942627 185.34936523 93.57373047 C181.85651636 93.74646027 181.85651636 93.74646027 179.0625 96.125 C178.381875 97.07375 177.70125 98.0225 177 99 C175.91573794 100.14419614 174.80958749 101.26787368 173.6875 102.375 C173.09324219 102.97054687 172.49898437 103.56609375 171.88671875 104.1796875 C169.3352661 106.64133747 166.65405541 108.93650611 163.96875 111.25 C162.06976929 112.93798286 160.27994012 114.68769734 158.5 116.5 C155.46167583 119.59356643 152.2523468 122.42105507 148.96875 125.25 C147.06976929 126.93798286 145.27994012 128.68769734 143.5 130.5 C139.04532865 135.02586473 134.2928596 139.18704125 129.3125 143.125 C126.68277261 145.2572114 124.36366829 147.57724 122 150 C120.33333333 151.66666667 118.66666667 153.33333333 117 155 C112.90095678 153.38966159 110.23823495 150.42164894 107.25 147.3125 C103.2968234 143.27853642 99.3112454 139.38687632 95.0078125 135.72265625 C91.70754043 132.89109986 88.51152384 129.94361726 85.296875 127.015625 C83.06085025 124.98573474 83.06085025 124.98573474 80.703125 123.359375 C80.14109375 122.91078125 79.5790625 122.4621875 79 122 C79 121.34 79 120.68 79 120 C78.42378906 119.75378906 77.84757812 119.50757813 77.25390625 119.25390625 C74.6375847 117.79837901 72.99108164 116.11391269 70.9375 113.9375 C66.75655255 109.64652761 62.31609461 105.9139093 57.609375 102.21484375 C55.15150079 100.12859423 53.24596674 97.96752103 51.1875 95.5 C47.62057434 91.75435573 44.82058187 91.49338081 39.73828125 91.28125 C38.47669189 91.22001953 37.21510254 91.15878906 35.9152832 91.09570312 C34.95323975 91.06412109 33.99119629 91.03253906 33 91 C33.00261841 92.07352219 33.00523682 93.14704437 33.00793457 94.25309753 C33.07638413 125.42621291 32.85910533 156.59262401 32.53643799 187.76391602 C32.47445472 193.80027646 32.41509515 199.83666277 32.35546875 205.87304688 C32.23944543 217.58205688 32.12068145 229.29103714 32 241 C31.34 241 30.68 241 30 241 C28.70726013 239.61598206 28.70726013 239.61598206 27.14624023 237.65063477 C24.08879135 234.02990254 20.81026652 231.11592305 17.12133789 228.14428711 C-0.83482521 213.27972462 -0.83482521 213.27972462 -2.96923828 201.62939453 C-3.66428332 193.72334261 -3.23898603 185.88368396 -2.70785522 177.97879028 C-2.45804859 173.82616804 -2.35542184 169.66993193 -2.2421875 165.51171875 C-2.08158022 159.91226565 -1.90699935 154.31445816 -1.67849731 148.71731567 C-0.95748489 130.83135602 -0.77879883 112.95621125 -0.68359375 95.05859375 C-0.67544517 93.57996681 -0.66728745 92.10133993 -0.65912056 90.62271309 C-0.62686408 84.69460317 -0.59632884 78.76648658 -0.5687151 72.83835316 C-0.50048784 58.35281672 -0.38159261 43.86783978 -0.25375557 29.38272285 C-0.21925167 25.46323771 -0.18553058 21.54374662 -0.15208435 17.62425232 C-0.10191965 11.74949688 -0.05122227 5.87474631 0 0 Z " fill="#FCFDFD" transform="translate(1170,396)"/>
<path d="M0 0 C8.58 0 17.16 0 26 0 C29.60455716 5.40683575 33.15607861 10.78863251 36.5625 16.3125 C40.39697871 22.49269061 44.32990045 28.60186381 48.3125 34.6875 C54.59327559 44.2945982 60.63212201 54.04206731 66.65039062 63.81494141 C70.20156948 69.56440789 73.85466061 75.24665129 77.546875 80.90625 C92.30224853 103.54718048 107.43295615 127.08103291 118 152 C117.910103 150.44644806 117.910103 150.44644806 117.81838989 148.86151123 C116.04481502 117.5331811 115.7453735 86.28636053 115.8626709 54.9140625 C115.88361367 48.69011872 115.89236499 42.4661568 115.90234375 36.2421875 C115.92340844 24.16140576 115.95839529 12.08072846 116 0 C123.59 0 131.18 0 139 0 C139 61.38 139 122.76 139 186 C130.75 186 122.5 186 114 186 C112.989375 184.164375 111.97875 182.32875 110.9375 180.4375 C106.51213774 172.57083376 101.53372109 165.07621805 96.57324219 157.54052734 C92.24792354 150.95537546 88.10086932 144.30117172 84.09375 137.51953125 C78.82869058 128.617293 73.21617333 119.91824818 67.68530273 111.17993164 C51.5354173 85.65337271 35.52066627 60.04133255 22 33 C22 83.49 22 133.98 22 186 C14.74 186 7.48 186 0 186 C0 124.62 0 63.24 0 0 Z " fill="#FBFBFB" transform="translate(2024,396)"/>
<path d="M0 0 C9.9 0 19.8 0 30 0 C34.37595066 13.12785199 34.37595066 13.12785199 36.18017578 18.59182739 C37.18736583 21.64095726 38.19822663 24.68886764 39.20898438 27.73681641 C39.737397 29.33216589 40.26473667 30.92787116 40.79101562 32.52392578 C43.35508798 40.29726424 45.91997287 48.01895675 49.04736328 55.58740234 C51.07587377 60.72470133 52.71844101 66.00305033 54.4375 71.25 C55.32305694 73.9331098 56.21191308 76.61511967 57.1015625 79.296875 C57.45040245 80.3489917 57.45040245 80.3489917 57.80628967 81.42236328 C60.58928664 89.79944257 63.44924584 98.15008174 66.3125 106.5 C66.71844894 107.68411469 66.71844894 107.68411469 67.13259888 108.89215088 C68.24084382 112.12440552 69.34935185 115.35656962 70.45845032 118.58853149 C72.46807739 124.44537543 74.47178489 130.30422205 76.47265625 136.1640625 C77.32734861 138.66647824 78.18209104 141.16887686 79.03686523 143.67126465 C79.59227746 145.29729743 80.14761689 146.92335507 80.70288086 148.54943848 C84.13673676 158.60249667 87.58514303 168.64960023 91.17333984 178.64892578 C93 183.78751876 93 183.78751876 93 186 C84.42 186 75.84 186 67 186 C62.68418536 173.83724965 58.49328442 161.63566055 54.38928223 149.40002441 C53.83786334 147.75765425 53.28488302 146.1158075 52.73034668 144.4744873 C51.94202304 142.1394244 51.15969076 139.80243668 50.37890625 137.46484375 C50.01844963 136.40193367 50.01844963 136.40193367 49.65071106 135.31755066 C48.68794345 132.4161644 48 130.07969831 48 127 C25.89 127 3.78 127 -19 127 C-19.66 129.97 -20.32 132.94 -21 136 C-21.45878401 137.627882 -21.9412168 139.24963375 -22.46459961 140.85791016 C-22.735056 141.69552887 -23.00551239 142.53314758 -23.28416443 143.39614868 C-23.5706636 144.26831024 -23.85716278 145.1404718 -24.15234375 146.0390625 C-24.45314346 146.96415619 -24.75394318 147.88924988 -25.06385803 148.84237671 C-25.69637948 150.78425392 -26.33096614 152.72545956 -26.9675293 154.66601562 C-27.93647939 157.62188655 -28.8974115 160.58027763 -29.85742188 163.5390625 C-30.47608725 165.43505098 -31.09521228 167.33088954 -31.71484375 169.2265625 C-31.9993187 170.10277252 -32.28379364 170.97898254 -32.57688904 171.88174438 C-32.98730186 173.12871597 -32.98730186 173.12871597 -33.40600586 174.40087891 C-33.64202011 175.12207916 -33.87803436 175.84327942 -34.12120056 176.58633423 C-35.28230213 179.77535666 -36.66310842 182.8805863 -38 186 C-45.92 186 -53.84 186 -62 186 C-61.27892473 181.67354838 -60.51695686 178.19362037 -59.13671875 174.1171875 C-58.75032227 172.96758545 -58.36392578 171.8179834 -57.96582031 170.63354492 C-57.33305176 168.77306519 -57.33305176 168.77306519 -56.6875 166.875 C-56.24398843 165.56046382 -55.80096575 164.24576259 -55.35839844 162.9309082 C-54.6541981 160.83922821 -53.94955317 158.74770581 -53.24319458 156.65675354 C-51.43876919 151.31430592 -49.65448385 145.96537992 -47.87890625 140.61328125 C-47.48749702 139.43439331 -47.48749702 139.43439331 -47.08818054 138.23168945 C-45.54872115 133.59503773 -45.54872115 133.59503773 -44.01132202 128.95770264 C-41.4114936 121.11380304 -38.76819355 113.29014948 -36 105.50390625 C-33.22584946 97.70045924 -30.59001138 89.85572958 -27.99142456 81.99230957 C-22.88415951 66.54627512 -17.64055085 51.15191064 -12.30908203 35.78173828 C-10.06947425 29.31812257 -7.84981562 22.84761837 -5.62747192 16.37805176 C-4.67349251 13.60088331 -3.71912388 10.82384868 -2.76475525 8.04681396 C-1.84304835 5.3645845 -0.92154299 2.68228578 0 0 Z " fill="#FAFAFB" transform="translate(1892,396)"/>
<path d="M0 0 C2.86896152 0.00858163 5.73596487 -0.02057871 8.60473633 -0.05200195 C35.47339843 -0.15346152 62.28774535 5.12384106 82.4230957 24.19604492 C100.45221458 42.25651878 106.89052399 63.55979915 106.98168945 88.63354492 C106.9846402 89.34414063 106.98759094 90.05473633 106.9906311 90.78686523 C107.01321908 114.72607975 101.7206902 137.9277551 85.66918945 156.44604492 C85.05301758 157.20530273 84.4368457 157.96456055 83.80200195 158.74682617 C69.30573821 176.06665936 44.13072718 185.92269582 21.99243164 188.03466797 C0.43886599 189.56342728 -24.1161215 190.68898273 -45.33081055 186.44604492 C-45.33081055 126.05604492 -45.33081055 65.66604492 -45.33081055 3.44604492 C-29.85750969 1.58924882 -15.43541258 -0.06992708 0 0 Z M-21.33081055 21.44604492 C-21.33081055 69.95604492 -21.33081055 118.46604492 -21.33081055 168.44604492 C-14.73606069 169.76499489 -8.28481906 169.6902816 -1.58081055 169.69604492 C-0.88240051 169.69671967 -0.18399048 169.69739441 0.5355835 169.6980896 C24.00095323 169.66200356 44.90795866 165.09410411 62.6105957 148.59057617 C69.91368213 140.98261706 73.85017365 132.12955559 77.66918945 122.44604492 C78.00257324 121.65480225 78.33595703 120.86355957 78.67944336 120.04833984 C82.21739101 110.7461731 82.10984659 100.64303256 82.10668945 90.82104492 C82.10775696 90.11460846 82.10882446 89.408172 82.10992432 88.68032837 C82.08573505 77.58892165 81.18046426 67.68592267 76.66918945 57.44604492 C76.22317383 56.4225293 75.7771582 55.39901367 75.31762695 54.34448242 C66.43813777 36.33747364 50.94411712 27.47273352 32.6887207 21.24291992 C26.45738968 19.59842894 20.18517739 19.28867041 13.7668457 19.27807617 C13.04484482 19.27474777 12.32284393 19.27141937 11.57896423 19.26799011 C10.06387969 19.26296613 8.54878427 19.26058037 7.03369141 19.26074219 C4.74077843 19.2585536 2.44834594 19.24034395 0.15551758 19.22143555 C-1.32820476 19.21850089 -2.81192935 19.21651658 -4.2956543 19.21557617 C-4.96781479 19.20839066 -5.63997528 19.20120514 -6.33250427 19.19380188 C-11.78682272 19.21945276 -15.73130194 20.20170968 -21.33081055 21.44604492 Z " fill="#FAFBFB" transform="translate(2262.330810546875,394.553955078125)"/>
<path d="M0 0 C2.78536613 0.02383595 5.5697802 0.02048833 8.35522461 0.01391602 C38.34181675 0.05726115 38.34181675 0.05726115 51.70483398 5.02368164 C52.44241943 5.28640869 53.18000488 5.54913574 53.93994141 5.81982422 C75.44669119 13.70400687 92.28329733 26.89869425 102.14233398 47.96118164 C112.92210815 75.68060093 112.73946895 107.48708442 101.57983398 135.08618164 C90.96870874 157.49043089 74.11256777 172.40687251 51.26733398 181.52368164 C34.3890631 187.33341287 17.17326165 188.50892856 -0.51049805 188.46655273 C-3.14320754 188.46123608 -5.77574325 188.46649958 -8.40844727 188.47290039 C-36.09794217 188.48525626 -36.09794217 188.48525626 -42.54516602 186.33618164 C-42.54516602 125.94618164 -42.54516602 65.55618164 -42.54516602 3.33618164 C-27.92268551 1.42890157 -14.57060628 -0.1326591 0 0 Z M-18.54516602 21.33618164 C-18.54516602 69.84618164 -18.54516602 118.35618164 -18.54516602 168.33618164 C4.0442768 172.8540702 32.36628114 170.64267418 52.25561523 158.50024414 C69.40570339 146.89932981 78.70342443 131.43023447 82.69311523 111.43774414 C82.94871546 110.07087232 83.20279825 108.7037152 83.45483398 107.33618164 C83.6469043 106.37583008 83.83897461 105.41547852 84.03686523 104.42602539 C86.94866802 82.90045529 83.5540297 60.26342366 70.42749023 42.60961914 C58.98544034 28.91226466 41.99874295 21.32021306 24.45483398 19.33618164 C19.34373861 19.04222001 14.22870297 19.04751114 9.11083984 19.07543945 C6.76105233 19.08621043 4.41202101 19.07546276 2.06225586 19.06274414 C0.54337399 19.06406514 -0.97550741 19.06662631 -2.49438477 19.07055664 C-3.18416916 19.06650818 -3.87395355 19.06245972 -4.5846405 19.05828857 C-9.74201882 19.1072096 -13.29036144 20.0224805 -18.54516602 21.33618164 Z " fill="#FAFBFB" transform="translate(1551.545166015625,394.663818359375)"/>
<path d="M0 0 C6.08631457 5.53196334 12.00787358 14.8252728 12.65722656 23.19897461 C12.95606201 40.1856849 12.40957404 54.76092749 0.24609375 67.87109375 C-13.24190992 80.33506243 -31.07539264 83.30979577 -48.81640625 83.24609375 C-49.91275391 83.24996094 -51.00910156 83.25382813 -52.13867188 83.2578125 C-53.18345703 83.25652344 -54.22824219 83.25523437 -55.3046875 83.25390625 C-56.73035034 83.25221436 -56.73035034 83.25221436 -58.18481445 83.25048828 C-60.50390625 83.12109375 -60.50390625 83.12109375 -62.50390625 82.12109375 C-62.50390625 97.63109375 -62.50390625 113.14109375 -62.50390625 129.12109375 C-65.47390625 130.11109375 -68.44390625 131.10109375 -71.50390625 132.12109375 C-74.16698269 133.15924219 -76.80042816 134.24968741 -79.4375 135.3515625 C-81.50390625 136.12109375 -81.50390625 136.12109375 -83.50390625 136.12109375 C-83.50390625 87.94109375 -83.50390625 39.76109375 -83.50390625 -9.87890625 C-56.17489437 -15.34470863 -23.38727383 -17.54957677 0 0 Z " fill="#F7F8F8" transform="translate(1521.50390625,626.87890625)"/>
<path d="M0 0 C1.8871875 -0.02416992 1.8871875 -0.02416992 3.8125 -0.04882812 C17.43333842 -0.05589288 28.60231635 2.98516838 40 10.4375 C48.40649312 19.22610644 50.25701214 28.58670838 50.015625 40.265625 C49.52598868 50.64399491 44.07776019 57.32942539 36.75 64.3125 C33.36760075 67.18678097 30.21879431 68.78675949 25.75 69.3125 C25.75 69.9725 25.75 70.6325 25.75 71.3125 C26.430625 71.51875 27.11125 71.725 27.8125 71.9375 C35.82473151 75.68790624 39.35163878 81.36474236 42.75 89.3125 C43.95039889 92.81371789 44.90455345 96.35055066 45.8125 99.9375 C46.06217529 100.88882813 46.31185059 101.84015625 46.5690918 102.8203125 C47.30765915 105.64820114 48.03040609 108.47973243 48.75 111.3125 C49.16116513 112.90372162 49.57260186 114.49487311 49.984375 116.0859375 C51.45119519 121.81596443 52.77627329 127.47013976 53.75 133.3125 C48.14 133.3125 42.53 133.3125 36.75 133.3125 C34.57966315 128.24838068 33.11296893 124.25842726 31.91796875 119.015625 C31.59105462 117.63007612 31.26356205 116.24466363 30.93554688 114.859375 C30.43549013 112.71759949 29.94033073 110.57503385 29.45581055 108.4296875 C26.25393526 93.4628335 26.25393526 93.4628335 17.49682617 81.35400391 C7.25121548 75.13797523 -1.5881191 76.88804004 -14.25 76.3125 C-14.25 95.4525 -14.25 114.5925 -14.25 134.3125 C-19.86 134.3125 -25.47 134.3125 -31.25 134.3125 C-31.25 90.7525 -31.25 47.1925 -31.25 2.3125 C-20.58989551 0.97998694 -10.64232891 -0.0275994 0 0 Z " fill="#F8F9FA" transform="translate(1579.25,613.6875)"/>
<path d="M0 0 C7.92 0 15.84 0 24 0 C24 54.45 24 108.9 24 165 C50.07 165 76.14 165 103 165 C103 171.6 103 178.2 103 185 C69.01 185 35.02 185 0 185 C0 123.95 0 62.9 0 0 Z " fill="#FAFAFB" transform="translate(1705,396)"/>
<path d="M0 0 C2.53694487 2.17589959 4.76107933 4.52478164 7 7 C8.2684375 8.11375 8.2684375 8.11375 9.5625 9.25 C20.86701647 22.00381345 24.35483945 38.66342004 24.3125 55.125 C24.32861328 56.35476563 24.34472656 57.58453125 24.36132812 58.8515625 C24.37019073 75.72595824 20.27505672 91.44404646 10 105 C9.24976563 106.01513672 9.24976563 106.01513672 8.484375 107.05078125 C-1.07567801 119.00084751 -14.71518628 124.92120074 -29.56640625 126.6796875 C-47.21482537 128.32607017 -60.88603381 123.9080144 -75.25 113.6875 C-88.79567598 100.4496803 -95.79690854 84.67062903 -96.3984375 65.74609375 C-96.40625836 63.30989586 -96.39841151 60.87359795 -96.375 58.4375 C-96.38660156 57.22642578 -96.39820313 56.01535156 -96.41015625 54.76757812 C-96.37427321 43.60197361 -94.67207319 32.92773979 -89.5 22.9375 C-89.15598145 22.26904053 -88.81196289 21.60058105 -88.45751953 20.91186523 C-80.90869403 6.95570329 -68.47485951 -3.4490851 -53.4375 -8.5625 C-35.24495326 -13.00320039 -15.60424964 -10.65656073 0 0 Z M-65.9375 17.25390625 C-77.869409 33.2745513 -80.22420074 52.91571454 -77.6953125 72.34033203 C-75.30942549 85.4353216 -68.97508518 97.15627432 -59 106 C-48.62719453 112.53937736 -38.01373684 113.43758067 -26 112 C-16.2495447 109.6097078 -8.5503695 103.16566706 -3 95 C6.87793992 77.87678697 9.05649084 56.90689556 4.375 37.75 C-0.12256665 23.46267697 -7.76942642 12.97281441 -21.0859375 5.890625 C-36.76883875 -0.47867589 -55.14262063 4.69615344 -65.9375 17.25390625 Z " fill="#F8F9F9" transform="translate(1742,623)"/>
<path d="M0 0 C8.25 0 16.5 0 25 0 C25 61.38 25 122.76 25 186 C16.75 186 8.5 186 0 186 C0 124.62 0 63.24 0 0 Z " fill="#F4F5F6" transform="translate(1438,396)"/>
<path d="M0 0 C23.43 0 46.86 0 71 0 C71 4.62 71 9.24 71 14 C53.18 14 35.36 14 17 14 C17 27.86 17 41.72 17 56 C34.16 56 51.32 56 69 56 C69 60.62 69 65.24 69 70 C51.84 70 34.68 70 17 70 C17 85.84 17 101.68 17 118 C35.81 118 54.62 118 74 118 C74 122.62 74 127.24 74 132 C49.58 132 25.16 132 0 132 C0 88.44 0 44.88 0 0 Z " fill="#FCFDFD" transform="translate(1860,615)"/>
<path d="M0 0 C1.02416016 0.00064453 2.04832031 0.00128906 3.10351562 0.00195312 C11.37485449 0.04951993 19.22079685 0.1974013 27 3.25 C27.93972656 3.61222656 28.87945313 3.97445312 29.84765625 4.34765625 C30.88212891 4.76337891 30.88212891 4.76337891 31.9375 5.1875 C31.31889249 8.56882068 30.49077538 11.74969782 29.375 15 C29.10558594 15.79019531 28.83617187 16.58039062 28.55859375 17.39453125 C28.35363281 17.98621094 28.14867187 18.57789063 27.9375 19.1875 C25.27097882 18.67982591 22.64844584 18.112818 20.01953125 17.43359375 C3.59483747 13.37157271 -12.27465319 13.55096444 -27.375 21.9375 C-39.245728 29.69765229 -45.70433261 40.48121974 -49 54.1875 C-52.03561305 71.24385083 -49.663126 89.4635701 -40.0625 104.1875 C-32.49029915 113.9897556 -21.21271692 119.54632427 -9.0625 121.1875 C0.45101902 121.84970911 9.6771852 121.55865327 18.9375 119.1875 C20.81068234 118.80352356 22.6857122 118.42844748 24.5625 118.0625 C26.02083333 117.77083333 27.47916667 117.47916667 28.9375 117.1875 C30.5287689 122.060761 31.14942221 125.99540596 30.9375 131.1875 C20.04522008 135.62509552 9.92165572 136.55071872 -1.8125 136.5625 C-3.0809375 136.58699219 -4.349375 136.61148438 -5.65625 136.63671875 C-23.03042335 136.68990499 -38.33559253 131.03812859 -51.0625 119.1875 C-64.27713707 105.45556397 -69.74029458 86.60742835 -69.46704102 67.86425781 C-68.74923402 48.71441554 -62.49341117 30.40838236 -48.20703125 17.0234375 C-33.98578212 4.84859763 -18.49803535 -0.22202317 0 0 Z " fill="#F8F9F9" transform="translate(2017.0625,612.8125)"/>
<path d="M0 0 C32.01 0 64.02 0 97 0 C97 4.62 97 9.24 97 14 C83.8 14 70.6 14 57 14 C57 52.94 57 91.88 57 132 C51.39 132 45.78 132 40 132 C40 93.06 40 54.12 40 14 C26.8 14 13.6 14 0 14 C0 9.38 0 4.76 0 0 Z " fill="#FBFDFD" transform="translate(2060,615)"/>
<path d="M0 0 C6.78227806 5.78974957 11.04822565 11.56857656 11.87890625 20.64453125 C12.1885024 30.50167323 11.03578998 39.13885757 4.8125 47.0625 C-2.72477648 54.91931189 -11.88375017 58.0930302 -22.63671875 58.40234375 C-36.52845572 58.56930886 -36.52845572 58.56930886 -43.4375 57.1875 C-43.4375 36.7275 -43.4375 16.2675 -43.4375 -4.8125 C-28.77207882 -7.74558424 -13.33501159 -7.03118793 0 0 Z " fill="#181B20" transform="translate(1502.4375,635.8125)"/>
<path d="M0 0 C5.61 0 11.22 0 17 0 C17.04643414 12.73527414 17.08192544 25.47052798 17.10362434 38.20586967 C17.11404111 44.12002437 17.1281618 50.03412094 17.15087891 55.94824219 C17.17268243 61.6605702 17.18458446 67.37284246 17.18975449 73.08520889 C17.19343678 75.25958254 17.20062725 77.43395329 17.21146011 79.60830307 C17.22607482 82.66455318 17.22797378 85.72057579 17.22705078 88.77685547 C17.23424133 89.66662582 17.24143188 90.55639618 17.24884033 91.47312927 C17.20736832 104.24582477 13.78164204 114.79652039 6 125 C-2.05892179 132.8468449 -12.06525499 134.55969873 -22.9375 135.25 C-38.16952614 134.83047386 -38.16952614 134.83047386 -41 132 C-40.9356887 130.20512995 -40.79860014 128.41261222 -40.625 126.625 C-40.53476563 125.64789062 -40.44453125 124.67078125 -40.3515625 123.6640625 C-40 121 -40 121 -39 118 C-38.17371094 118.15984375 -37.34742188 118.3196875 -36.49609375 118.484375 C-32.66988905 119.04868675 -28.921128 119.22079563 -25.0625 119.25 C-24.38509766 119.270625 -23.70769531 119.29125 -23.00976562 119.3125 C-16.49899678 119.36243878 -11.95084211 117.90650479 -7.25 113.3125 C-1.49354254 105.70034244 -0.85422593 96.72647439 -0.79467773 87.52807617 C-0.78477814 86.58124969 -0.77487854 85.63442322 -0.76467896 84.65890503 C-0.73315333 81.53695149 -0.70834187 78.41498276 -0.68359375 75.29296875 C-0.66301651 73.12534698 -0.64201983 70.95772916 -0.62062073 68.79011536 C-0.56547964 63.0904968 -0.51603525 57.39084251 -0.46777344 51.69116211 C-0.41750025 45.87285184 -0.36184456 40.05459333 -0.30664062 34.23632812 C-0.19915644 22.824263 -0.09768987 11.41215288 0 0 Z " fill="#FAFBFB" transform="translate(1815,615)"/>
<path d="M0 0 C3.00475965 3.00475965 3.27845642 6.8190068 4.1953125 10.84765625 C6.77064977 21.62626422 10.20919707 31.98901754 13.875 42.4375 C14.49917934 44.23802676 15.12238124 46.03889265 15.74462891 47.84008789 C16.95151478 51.33202606 18.16166275 54.82279846 19.375 58.3125 C21.41092519 64.17553892 23.40671637 70.05137937 25.375 75.9375 C25.65456543 76.7637085 25.93413086 77.58991699 26.22216797 78.44116211 C28 83.76232031 28 83.76232031 28 86 C9.85 86 -8.3 86 -27 86 C-26.20679642 81.2407785 -25.13801576 77.00199749 -23.6015625 72.4765625 C-23.24812271 71.41905289 -23.24812271 71.41905289 -22.88754272 70.34017944 C-22.39035533 68.85530966 -21.8910188 67.37115793 -21.38964844 65.88769531 C-20.63013597 63.64019802 -19.87697789 61.39065308 -19.125 59.140625 C-18.63839245 57.68997946 -18.15142484 56.23945464 -17.6640625 54.7890625 C-17.44207184 54.12734039 -17.22008118 53.46561829 -16.99136353 52.78384399 C-15.13829727 47.30677416 -13.15261585 41.88607749 -11.0078125 36.515625 C-8.30573933 29.58110095 -6.53396732 22.48968825 -4.83837891 15.25683594 C-3.58265401 9.9834125 -2.00497864 5.03859849 0 0 Z " fill="#181C20" transform="translate(1906,418)"/>
<path d="M0 0 C4.21492758 3.3780286 7.57982125 6.97589495 8.6015625 12.421875 C9.40525506 20.36724068 9.15019421 26.73458839 4.6015625 33.421875 C4.0859375 34.30875 3.5703125 35.195625 3.0390625 36.109375 C-8.23008847 46.80062079 -24.04324915 44.421875 -38.3984375 44.421875 C-38.3984375 28.251875 -38.3984375 12.081875 -38.3984375 -4.578125 C-25.73969561 -7.10987338 -11.09925835 -7.30309507 0 0 Z " fill="#181C20" transform="translate(1603.3984375,632.578125)"/>
<path d="M0 0 C0.66 0 1.32 0 2 0 C2 0.66 2 1.32 2 2 C2.66 2 3.32 2 4 2 C4 2.66 4 3.32 4 4 C4.66 4.66 5.32 5.32 6 6 C5.01 6 4.02 6 3 6 C3 59.13 3 112.26 3 167 C2.34 167 1.68 167 1 167 C0.67 111.89 0.34 56.78 0 0 Z " fill="#111419" transform="translate(1728,394)"/>
<path d="M0 0 C0.33 0 0.66 0 1 0 C1.2875796 5.26515419 1.57231187 10.53045211 1.85449219 15.79589844 C1.95072891 17.58435141 2.04772177 19.37276388 2.14550781 21.16113281 C2.28653172 23.74273369 2.42476849 26.32447162 2.5625 28.90625 C2.60624756 29.69616333 2.64999512 30.48607666 2.69506836 31.29992676 C2.95357602 36.20767131 3.0391604 41.08536949 3 46 C1.05225129 44.05225129 0.2918077 42.7541071 -0.83984375 40.296875 C-1.18080078 39.56339844 -1.52175781 38.82992187 -1.87304688 38.07421875 C-2.39995117 36.92373047 -2.39995117 36.92373047 -2.9375 35.75 C-3.63344666 34.24448273 -4.33005001 32.73926883 -5.02734375 31.234375 C-5.52596924 30.15639648 -5.52596924 30.15639648 -6.03466797 29.05664062 C-7.30702492 26.34588317 -8.64389925 23.6696905 -10 21 C-8.35 21 -6.7 21 -5 21 C-5 20.34 -5 19.68 -5 19 C-5.66 19 -6.32 19 -7 19 C-6.67 18.01 -6.34 17.02 -6 16 C-4.33333333 16 -2.66666667 16 -1 16 C-0.67 10.72 -0.34 5.44 0 0 Z " fill="#1F2225" transform="translate(2140,504)"/>
<path d="M0 0 C4.53465347 5.66831683 4.53465347 5.66831683 6.25 9.1875 C6.58515625 9.86167969 6.9203125 10.53585937 7.265625 11.23046875 C8 13 8 13 8 15 C5.36 15.33 2.72 15.66 0 16 C0 10.72 0 5.44 0 0 Z " fill="#1D2124" transform="translate(2045,427)"/>
<path d="M0 0 C-1.875 6.75 -1.875 6.75 -3 9 C-5.97 8.505 -5.97 8.505 -9 8 C-9.33 8.66 -9.66 9.32 -10 10 C-10.66 8.02 -11.32 6.04 -12 4 C-10.3767313 3.3291288 -8.75132422 2.66342971 -7.125 2 C-6.22007813 1.62875 -5.31515625 1.2575 -4.3828125 0.875 C-2 0 -2 0 0 0 Z " fill="#202327" transform="translate(1512,702)"/>
<path d="M0 0 C0.66 0.99 1.32 1.98 2 3 C1.01 3.99 0.02 4.98 -1 6 C-0.34 6.66 0.32 7.32 1 8 C-2 10 -2 10 -4.375 10.4375 C-7.38579421 11.08267019 -9.44220769 12.31916506 -12 14 C-11.59773543 9.58540416 -8.59612875 7.46302944 -5.4375 4.75 C-4.91736328 4.29109375 -4.39722656 3.8321875 -3.86132812 3.359375 C-2.58104445 2.2317857 -1.29141202 1.11482685 0 0 Z " fill="#1C1F23" transform="translate(1346,495)"/>
<path d="M0 0 C3.9429464 1.46596725 5.01834588 3.37308275 6.75 7.125 C7.17796875 8.03507813 7.6059375 8.94515625 8.046875 9.8828125 C8.51867188 10.93082031 8.51867188 10.93082031 9 12 C8.34 12.66 7.68 13.32 7 14 C4.875 13.625 4.875 13.625 3 13 C2.814375 11.576875 2.814375 11.576875 2.625 10.125 C2.28312823 6.91332809 2.28312823 6.91332809 0 5 C-0.125 2.375 -0.125 2.375 0 0 Z " fill="#202225" transform="translate(1952,714)"/>
<path d="M0 0 C4.62 0 9.24 0 14 0 C11.04592092 1.96938605 9.44788617 2.56901423 6 3 C5.01 2.67 4.02 2.34 3 2 C2.5978125 3.1446875 2.5978125 3.1446875 2.1875 4.3125 C1.05575888 6.87380884 0.08776599 8.19692938 -2 10 C-2 9.01 -2 8.02 -2 7 C-2.99 6.67 -3.98 6.34 -5 6 C-4.34 5.01 -3.68 4.02 -3 3 C-2.34 3 -1.68 3 -1 3 C-0.67 2.01 -0.34 1.02 0 0 Z " fill="#1D2125" transform="translate(1352,489)"/>
<path d="M0 0 C1.175625 0.5259375 1.175625 0.5259375 2.375 1.0625 C3.674375 1.5265625 3.674375 1.5265625 5 2 C5.66 1.67 6.32 1.34 7 1 C7 2.32 7 3.64 7 5 C7.66 5 8.32 5 9 5 C9 6.65 9 8.3 9 10 C9.66 10 10.32 10 11 10 C10.67 10.99 10.34 11.98 10 13 C6.37 9.7 2.74 6.4 -1 3 C-0.67 2.01 -0.34 1.02 0 0 Z " fill="#212427" transform="translate(1200,419)"/>
<path d="M0 0 C0.33 0 0.66 0 1 0 C1.33 8.25 1.66 16.5 2 25 C-0.68657635 22.31342365 -1.65976043 19.53335886 -3 16 C-3 14.68 -3 13.36 -3 12 C-2.01 12 -1.02 12 0 12 C0 8.04 0 4.08 0 0 Z " fill="#404448" transform="translate(2141,525)"/>
<path d="M0 0 C0.99 0.33 1.98 0.66 3 1 C1.92598892 3.91517292 1.22189824 5.77810176 -1 8 C-1 9.32 -1 10.64 -1 12 C-5.625 14.125 -5.625 14.125 -9 13 C-8.60167969 12.48050781 -8.20335937 11.96101562 -7.79296875 11.42578125 C-4.97822677 7.72073158 -2.28614026 4.06424935 0 0 Z " fill="#25282A" transform="translate(1649,536)"/>
<path d="M0 0 C0.598125 0.350625 1.19625 0.70125 1.8125 1.0625 C2.1425 0.7325 2.4725 0.4025 2.8125 0.0625 C3.4725 0.3925 4.1325 0.7225 4.8125 1.0625 C4.8125 2.0525 4.8125 3.0425 4.8125 4.0625 C1.8125 6.25 1.8125 6.25 -1.1875 8.0625 C-1.5175 6.7425 -1.8475 5.4225 -2.1875 4.0625 C-2.5175 5.7125 -2.8475 7.3625 -3.1875 9.0625 C-3.8475 8.7325 -4.5075 8.4025 -5.1875 8.0625 C-5.001875 7.11375 -4.81625 6.165 -4.625 5.1875 C-3.90063368 2.16381207 -3.90063368 2.16381207 -5.1875 0.0625 C-2.1875 -0.9375 -2.1875 -0.9375 0 0 Z " fill="#1C2125" transform="translate(1334.1875,448.9375)"/>
<path d="M0 0 C4.71430751 0 7.52165337 3.01156135 11 6 C13.5 8.875 13.5 8.875 15 11 C13.68 11 12.36 11 11 11 C9.33333333 9.33333333 7.66666667 7.66666667 6 6 C3.32209104 5.12761142 3.32209104 5.12761142 1 5 C0.67 3.35 0.34 1.7 0 0 Z " fill="#1A1F23" transform="translate(1251,522)"/>
<path d="M0 0 C1.6875 2 1.6875 2 3 4 C-1.41029783 6.20949832 -5.48940324 6.2370648 -10.3125 6.125 C-11.05306641 6.11597656 -11.79363281 6.10695313 -12.55664062 6.09765625 C-14.37123467 6.07424213 -16.18566071 6.03837615 -18 6 C-18 5.67 -18 5.34 -18 5 C-11.565 4.505 -11.565 4.505 -5 4 C-5.99 3.34 -6.98 2.68 -8 2 C-5.09399739 0.74335022 -3.20395416 0 0 0 Z " fill="#35373A" transform="translate(1800,729)"/>
<path d="M0 0 C0.515625 0.2475 1.03125 0.495 1.5625 0.75 C1.2325 2.73 0.9025 4.71 0.5625 6.75 C-1.4175 6.75 -3.3975 6.75 -5.4375 6.75 C-4.4475 6.09 -3.4575 5.43 -2.4375 4.75 C-3.4275 4.75 -4.4175 4.75 -5.4375 4.75 C-6.4275 6.235 -6.4275 6.235 -7.4375 7.75 C-8.0975 6.43 -8.7575 5.11 -9.4375 3.75 C-3.0375 -0.31153846 -3.0375 -0.31153846 0 0 Z " fill="#1F2427" transform="translate(1997.4375,631.25)"/>
<path d="M0 0 C3 3 3 3 3.1875 6.1875 C3.125625 7.115625 3.06375 8.04375 3 9 C2.34 9 1.68 9 1 9 C1.33 10.65 1.66 12.3 2 14 C1.67 13.34 1.34 12.68 1 12 C-0.32 12 -1.64 12 -3 12 C-2.01 8.04 -1.02 4.08 0 0 Z " fill="#272B2E" transform="translate(1860,562)"/>
<path d="M0 0 C0.8353125 0.9590625 0.8353125 0.9590625 1.6875 1.9375 C3.82505573 4.19980995 3.82505573 4.19980995 6.625 4.5 C9 5 9 5 10.3125 6.875 C11 9 11 9 11 12 C5.3373174 9.1686587 1.84380901 6.01243959 -2 1 C-1.34 0.67 -0.68 0.34 0 0 Z " fill="#202427" transform="translate(1980,717)"/>
<path d="M0 0 C2.96271413 4.4440712 1.40209176 7.90018745 0.4375 12.9375 C0.293125 13.618125 0.14875 14.29875 0 15 C-0.66 15 -1.32 15 -2 15 C-2.66 12.69 -3.32 10.38 -4 8 C-3.34 8 -2.68 8 -2 8 C-1.34 5.36 -0.68 2.72 0 0 Z " fill="#1B1E20" transform="translate(1830,568)"/>
<path d="M0 0 C1.66666667 0 3.33333333 0 5 0 C3.25 7.625 3.25 7.625 1 11 C0.01 11.495 0.01 11.495 -1 12 C-1.08159574 7.83861737 -0.98248524 4.0527516 0 0 Z " fill="#1F2428" transform="translate(1858,482)"/>
<path d="M0 0 C1.32 0 2.64 0 4 0 C4.061875 0.928125 4.061875 0.928125 4.125 1.875 C4.41375 2.57625 4.7025 3.2775 5 4 C7.99615946 5.3045656 7.99615946 5.3045656 11 6 C10.34 7.65 9.68 9.3 9 11 C7.87411986 10.04270084 6.7493285 9.08412105 5.625 8.125 C4.99851562 7.59132813 4.37203125 7.05765625 3.7265625 6.5078125 C2.44163349 5.38567993 1.20628025 4.20628025 0 3 C0 2.01 0 1.02 0 0 Z " fill="#292D2F" transform="translate(1236,452)"/>
<path d="M0 0 C0.61488281 0.0721875 1.22976562 0.144375 1.86328125 0.21875 C3.07564453 0.35796875 3.07564453 0.35796875 4.3125 0.5 C5.51326172 0.63921875 5.51326172 0.63921875 6.73828125 0.78125 C9.11896555 1.04813463 9.11896555 1.04813463 12 1 C11.01 2.485 11.01 2.485 10 4 C10.66 4.66 11.32 5.32 12 6 C9.34501768 7.0169313 8.30844625 7.13022151 5.640625 6.00390625 C4.85171875 5.52824219 4.0628125 5.05257813 3.25 4.5625 C2.45078125 4.08941406 1.6515625 3.61632812 0.828125 3.12890625 C0.22484375 2.75636719 -0.3784375 2.38382812 -1 2 C-0.67 1.34 -0.34 0.68 0 0 Z " fill="#232629" transform="translate(2324,403)"/>
<path d="M0 0 C0.99 0.33 1.98 0.66 3 1 C3 1.99 3 2.98 3 4 C2.34 4.66 1.68 5.32 1 6 C0.11221308 7.96488831 0.11221308 7.96488831 -0.625 10.125 C-0.88539062 10.84945312 -1.14578125 11.57390625 -1.4140625 12.3203125 C-1.60742188 12.87460937 -1.80078125 13.42890625 -2 14 C-2.66 14 -3.32 14 -4 14 C-3.46148032 8.72250715 -2.22656164 4.74354436 0 0 Z " fill="#2A2C30" transform="translate(1972,653)"/>
<path d="M0 0 C-0.33 0.99 -0.66 1.98 -1 3 C-1.66 3 -2.32 3 -3 3 C-3.33 3.66 -3.66 4.32 -4 5 C-4 4.34 -4 3.68 -4 3 C-5.27875 3.20625 -6.5575 3.4125 -7.875 3.625 C-10.0546875 3.9765625 -10.0546875 3.9765625 -12 4 C-12.66 3.34 -13.32 2.68 -14 2 C-12.23225581 1.46877637 -10.46065917 0.95035927 -8.6875 0.4375 C-7.70136719 0.14746094 -6.71523437 -0.14257812 -5.69921875 -0.44140625 C-3 -1 -3 -1 0 0 Z " fill="#222628" transform="translate(1603,577)"/>
<path d="M0 0 C0.99 0 1.98 0 3 0 C4.98 3.63 6.96 7.26 9 11 C8.01 11.33 7.02 11.66 6 12 C5.87625 11.071875 5.87625 11.071875 5.75 10.125 C5.37875 9.073125 5.37875 9.073125 5 8 C4.34 7.71125 3.68 7.4225 3 7.125 C2.34 6.75375 1.68 6.3825 1 6 C0.25 2.875 0.25 2.875 0 0 Z " fill="#23262A" transform="translate(2091,509)"/>
<path d="M0 0 C0.66 0.33 1.32 0.66 2 1 C4.09821215 0.60061233 4.09821215 0.60061233 6 0 C4.83709195 3.48872415 3.86032391 4.09976864 0.9375 6.1875 C0.20402344 6.71730469 -0.52945312 7.24710937 -1.28515625 7.79296875 C-2.13400391 8.39044922 -2.13400391 8.39044922 -3 9 C-3.99 7.68 -4.98 6.36 -6 5 C-4.68 5.33 -3.36 5.66 -2 6 C-1.855625 5.38125 -1.71125 4.7625 -1.5625 4.125 C-1 2 -1 2 0 0 Z " fill="#23262B" transform="translate(1323,460)"/>
<path d="M0 0 C0 3 0 3 -1.875 4.9375 C-2.57625 5.618125 -3.2775 6.29875 -4 7 C-4.433125 8.0209375 -4.433125 8.0209375 -4.875 9.0625 C-6.58302612 12.00410054 -8.92182769 12.74360314 -12 14 C-12.99 14 -13.98 14 -15 14 C-10.05 9.38 -5.1 4.76 0 0 Z " fill="#DBDDDE" transform="translate(1369,424)"/>
<path d="M0 0 C0 0.99 0 1.98 0 3 C-1.65 3 -3.3 3 -5 3 C-5.33 3.66 -5.66 4.32 -6 5 C-7.32 4.34 -8.64 3.68 -10 3 C-10 2.34 -10 1.68 -10 1 C-3.71428571 -1.42857143 -3.71428571 -1.42857143 0 0 Z " fill="#212428" transform="translate(2312,577)"/>
<path d="M0 0 C3.63 0 7.26 0 11 0 C11 0.99 11 1.98 11 3 C7.12315913 4.19287411 4.08378077 5 0 5 C0 3.33333333 0 1.66666667 0 0 Z " fill="#1E2125" transform="translate(2296,553)"/>
<path d="M0 0 C2.64 1.98 5.28 3.96 8 6 C7.67 6.66 7.34 7.32 7 8 C6.34 8 5.68 8 5 8 C5 7.34 5 6.68 5 6 C3.68 6 2.36 6 1 6 C-0.34164079 5.7018576 -1.67851173 5.37756808 -3 5 C-2.625 3.0625 -2.625 3.0625 -2 1 C-1.34 0.67 -0.68 0.34 0 0 Z " fill="#1D2123" transform="translate(1964,730)"/>
<path d="M0 0 C1.77007714 -0.08114106 3.54122098 -0.13925505 5.3125 -0.1875 C6.29863281 -0.22230469 7.28476563 -0.25710938 8.30078125 -0.29296875 C11 0 11 0 12.85546875 1.51171875 C13.23316406 2.00285156 13.61085938 2.49398437 14 3 C6.65517241 4.22413793 6.65517241 4.22413793 3.625 3.1875 C2 2 2 2 0 0 Z " fill="#23282B" transform="translate(1592,612)"/>
<path d="M0 0 C0.33 0.66 0.66 1.32 1 2 C1.66 2.33 2.32 2.66 3 3 C2.814375 3.7425 2.62875 4.485 2.4375 5.25 C2.00796892 7.94990963 2.14877026 9.44631077 3 12 C1.02 11.34 -0.96 10.68 -3 10 C-2.01 6.7 -1.02 3.4 0 0 Z " fill="#202528" transform="translate(1628,658)"/>
<path d="M0 0 C2.475 0.495 2.475 0.495 5 1 C5.33 2.98 5.66 4.96 6 7 C6.66 6.67 7.32 6.34 8 6 C7.625 7.9375 7.625 7.9375 7 10 C6.01 10.495 6.01 10.495 5 11 C4.16151196 9.54462432 3.32936066 8.08559627 2.5 6.625 C1.80390625 5.40683594 1.80390625 5.40683594 1.09375 4.1640625 C0 2 0 2 0 0 Z " fill="#23272A" transform="translate(1622,627)"/>
<path d="M0 0 C2.35953094 2.35953094 2.49141413 3.77895617 3 7 C2.34 6.67 1.68 6.34 1 6 C0.67 6.66 0.34 7.32 0 8 C0.66 8 1.32 8 2 8 C2 8.66 2 9.32 2 10 C0.02 9.34 -1.96 8.68 -4 8 C-2.66666667 5.33333333 -1.33333333 2.66666667 0 0 Z " fill="#202328" transform="translate(1629,451)"/>
<path d="M0 0 C3.71279784 1.44386582 4.9486443 3.12236392 6.75 6.625 C7.17796875 7.44226563 7.6059375 8.25953125 8.046875 9.1015625 C8.51867188 10.04128906 8.51867188 10.04128906 9 11 C6.03 10.505 6.03 10.505 3 10 C2.896875 9.071875 2.79375 8.14375 2.6875 7.1875 C1.9929808 3.96745642 1.52259061 2.97420135 -1 1 C-0.67 0.67 -0.34 0.34 0 0 Z " fill="#222528" transform="translate(2327,436)"/>
<path d="M0 0 C0.66 0.66 1.32 1.32 2 2 C1.625 4.125 1.625 4.125 1 6 C-0.98 6.33 -2.96 6.66 -5 7 C-5.33 5.68 -5.66 4.36 -6 3 C-4.02 2.01 -2.04 1.02 0 0 Z " fill="#21262A" transform="translate(1622,566)"/>
<path d="M0 0 C0.33 0.66 0.66 1.32 1 2 C1.66 2 2.32 2 3 2 C2.67 4.31 2.34 6.62 2 9 C0.35 9.66 -1.3 10.32 -3 11 C-2.01 7.37 -1.02 3.74 0 0 Z " fill="#292E31" transform="translate(1882,492)"/>
<path d="M0 0 C2.32590854 3.63423209 2.16265833 6.77088331 2 11 C1.67 10.34 1.34 9.68 1 9 C-0.32 9.33 -1.64 9.66 -3 10 C-2.69201674 8.51988629 -2.378482 7.04092675 -2.0625 5.5625 C-1.88847656 4.73878906 -1.71445313 3.91507812 -1.53515625 3.06640625 C-1 1 -1 1 0 0 Z " fill="#292C31" transform="translate(1892,464)"/>
<path d="M0 0 C0.33 0.66 0.66 1.32 1 2 C1.66 2 2.32 2 3 2 C3.33 1.34 3.66 0.68 4 0 C4.99 0.33 5.98 0.66 7 1 C6.67 1.66 6.34 2.32 6 3 C5.34 3 4.68 3 4 3 C1.81005752 6.28491373 1.64722661 7.83095639 1.375 11.6875 C1.30023437 12.68136719 1.22546875 13.67523438 1.1484375 14.69921875 C1.09945313 15.45847656 1.05046875 16.21773438 1 17 C0.67 17 0.34 17 0 17 C0 11.39 0 5.78 0 0 Z " fill="#0C1114" transform="translate(2046,441)"/>
<path d="M0 0 C3.00617269 3.00617269 2.59585316 5.82381598 3 10 C1.68 10 0.36 10 -1 10 C-2.15837626 5.94568308 -1.83691257 3.78187881 0 0 Z " fill="#2B3034" transform="translate(1906,418)"/>
<path d="M0 0 C1.32 0 2.64 0 4 0 C6.09230769 4.43076923 6.09230769 4.43076923 5.625 7.3125 C5.41875 7.869375 5.2125 8.42625 5 9 C2.5 6.75 2.5 6.75 0 4 C0 2.68 0 1.36 0 0 Z " fill="#25272C" transform="translate(1189,409)"/>
<path d="M0 0 C2 3 2 3 1.625 5.6875 C1.41875 6.450625 1.2125 7.21375 1 8 C-1.375 8.625 -1.375 8.625 -4 9 C-4.66 8.34 -5.32 7.68 -6 7 C-4.02 4.69 -2.04 2.38 0 0 Z " fill="#282D30" transform="translate(2351,546)"/>
<path d="M0 0 C2.97 0.99 5.94 1.98 9 3 C7 5 7 5 4 5.3125 C2.515 5.1578125 2.515 5.1578125 1 5 C0.34 4.01 -0.32 3.02 -1 2 C-0.67 1.34 -0.34 0.68 0 0 Z " fill="#24272C" transform="translate(1589,417)"/>
<path d="M0 0 C0.99 0.33 1.98 0.66 3 1 C2.07347299 2.17539996 1.13336613 3.34010577 0.1875 4.5 C-0.33457031 5.1496875 -0.85664062 5.799375 -1.39453125 6.46875 C-3 8 -3 8 -6 8 C-5.67 7.01 -5.34 6.02 -5 5 C-4.34 5 -3.68 5 -3 5 C-2.5359375 4.0409375 -2.5359375 4.0409375 -2.0625 3.0625 C-1 1 -1 1 0 0 Z " fill="#222629" transform="translate(1383,408)"/>
<path d="M0 0 C2.92987626 5.27377728 3.11710798 10.02749309 3 16 C0.51635743 13.51635743 0.41725183 11.98639569 -0.1875 8.5625 C-0.36667969 7.59441406 -0.54585937 6.62632812 -0.73046875 5.62890625 C-1 3 -1 3 0 0 Z " fill="#303436" transform="translate(1948,692)"/>
<path d="M0 0 C0.66 0 1.32 0 2 0 C2 4.29 2 8.58 2 13 C1.01 13.495 1.01 13.495 0 14 C-1.03115279 10.73086376 -0.9638984 8.13958652 -0.5625 4.75 C-0.46066406 3.85796875 -0.35882812 2.9659375 -0.25390625 2.046875 C-0.17011719 1.37140625 -0.08632812 0.6959375 0 0 Z " fill="#292C2E" transform="translate(1610,645)"/>
<path d="M0 0 C1.9375 0.75 1.9375 0.75 4 2 C4.75 4.125 4.75 4.125 5 6 C1.25 7.125 1.25 7.125 -1 6 C-1.042721 4.33388095 -1.04063832 2.66617115 -1 1 C-0.67 0.67 -0.34 0.34 0 0 Z " fill="#E7ECEE" transform="translate(2107,489)"/>
<path d="M0 0 C0.66 0 1.32 0 2 0 C4.08741289 2.08741289 4.00757901 4.38652936 4.0625 7.1875 C4.041875 8.115625 4.02125 9.04375 4 10 C3.01 10 2.02 10 1 10 C0.63883954 8.5225254 0.28624952 7.04295325 -0.0625 5.5625 C-0.25972656 4.73878906 -0.45695312 3.91507812 -0.66015625 3.06640625 C-0.82837891 2.04353516 -0.82837891 2.04353516 -1 1 C-0.67 0.67 -0.34 0.34 0 0 Z " fill="#26282D" transform="translate(1936,434)"/>
<path d="M0 0 C1.24142712 4.96570849 0.37261666 7.15547062 -1 12 C-2.32 11.34 -3.64 10.68 -5 10 C-3.35 6.7 -1.7 3.4 0 0 Z " fill="#2A2B2D" transform="translate(1760,713)"/>
<path d="M0 0 C0.66 0.99 1.32 1.98 2 3 C-0.31 5.31 -2.62 7.62 -5 10 C-5.66 9.01 -6.32 8.02 -7 7 C-6.01 6.67 -5.02 6.34 -4 6 C-3.67 5.01 -3.34 4.02 -3 3 C-1.4375 1.3125 -1.4375 1.3125 0 0 Z " fill="#F1F4F6" transform="translate(1620,669)"/>
<path d="M0 0 C0.99 0.66 1.98 1.32 3 2 C2.38125 2.2475 1.7625 2.495 1.125 2.75 C-1.41292362 4.24289625 -1.7414688 5.40427941 -3 8 C-5.125 9.75 -5.125 9.75 -7 11 C-7.66 10.67 -8.32 10.34 -9 10 C-6.03 6.7 -3.06 3.4 0 0 Z " fill="#EBEEEF" transform="translate(2330,536)"/>
<path d="M0 0 C1.32 0.33 2.64 0.66 4 1 C2.68 3.64 1.36 6.28 0 9 C-0.66 8.34 -1.32 7.68 -2 7 C-1.6730244 4.38419521 -1.17960932 2.35921863 0 0 Z " fill="#202428" transform="translate(1508,673)"/>
<path d="M0 0 C1.12894876 0.93274109 2.25300876 1.87140122 3.375 2.8125 C4.00148438 3.33457031 4.62796875 3.85664062 5.2734375 4.39453125 C7 6 7 6 9 9 C8.01 9.33 7.02 9.66 6 10 C6 9.01 6 8.02 6 7 C5.01 7 4.02 7 3 7 C3 6.34 3 5.68 3 5 C2.34 5 1.68 5 1 5 C0.67 3.35 0.34 1.7 0 0 Z " fill="#282A2C" transform="translate(1182,618)"/>
<path d="M0 0 C3.36720387 1.39332574 4.9859524 2.9789286 7 6 C6.67 6.66 6.34 7.32 6 8 C5.34 8 4.68 8 4 8 C4 7.34 4 6.68 4 6 C3.34 6 2.68 6 2 6 C0.375 4.5 0.375 4.5 -1 3 C-0.67 2.01 -0.34 1.02 0 0 Z " fill="#1F2225" transform="translate(1175,612)"/>
<path d="M0 0 C4.62 0 9.24 0 14 0 C8.82976131 3.44682579 5.02634681 3.06347297 -1 2 C-0.67 1.34 -0.34 0.68 0 0 Z " fill="#25292A" transform="translate(1352,489)"/>
<path d="M0 0 C2.52588702 2.36292656 3.88820837 3.66462511 5 7 C4.34 7.66 3.68 8.32 3 9 C0.9375 7.3125 0.9375 7.3125 -1 5 C-0.75 2.25 -0.75 2.25 0 0 Z " fill="#22262A" transform="translate(1622,439)"/>
<path d="M0 0 C3.37503669 1.1858237 5.64722731 2.27573689 8 5 C5 6 5 6 1.8125 4.5625 C0.884375 4.046875 -0.04375 3.53125 -1 3 C-0.67 2.01 -0.34 1.02 0 0 Z " fill="#202427" transform="translate(1603,423)"/>
<path d="M0 0 C3.37503669 1.1858237 5.64722731 2.27573689 8 5 C6.25 5.75 6.25 5.75 4 6 C1.75 4.1875 1.75 4.1875 0 2 C0 1.34 0 0.68 0 0 Z " fill="#202428" transform="translate(1721,630)"/>
<path d="M0 0 C1.32 1.32 2.64 2.64 4 4 C3.34 5.65 2.68 7.3 2 9 C0.4375 7.3125 0.4375 7.3125 -1 5 C-0.6875 2.25 -0.6875 2.25 0 0 Z " fill="#212428" transform="translate(2123,558)"/>
<path d="M0 0 C3 0 3 0 5 1 C4.38722388 3.96175123 3.74627478 5.38058783 2 8 C0.4375 6.8125 0.4375 6.8125 -1 5 C-0.6875 2.3125 -0.6875 2.3125 0 0 Z " fill="#22252A" transform="translate(1626,516)"/>
<path d="M0 0 C2.475 0.99 2.475 0.99 5 2 C4.443125 2.268125 3.88625 2.53625 3.3125 2.8125 C0.80287477 4.10122647 -1.59334236 5.52926478 -4 7 C-3.43628586 3.73045798 -2.50037734 2.17424117 0 0 Z " fill="#23272B" transform="translate(1338,502)"/>
<path d="M0 0 C1.65 0.33 3.3 0.66 5 1 C5.33 2.32 5.66 3.64 6 5 C3.625 5.1875 3.625 5.1875 1 5 C0.34 4.01 -0.32 3.02 -1 2 C-0.67 1.34 -0.34 0.68 0 0 Z " fill="#F3F5F5" transform="translate(2329,433)"/>
<path d="M0 0 C-0.33 1.65 -0.66 3.3 -1 5 C-4.68754757 4.50168276 -6.60490662 3.89932357 -9 1 C-5.92677456 0.08941469 -3.19902639 -0.08886184 0 0 Z " fill="#202327" transform="translate(2343,409)"/>
<path d="M0 0 C1.2065625 0.0309375 1.2065625 0.0309375 2.4375 0.0625 C2.7675 1.7125 3.0975 3.3625 3.4375 5.0625 C2.839375 4.8975 2.24125 4.7325 1.625 4.5625 C-0.67594336 3.9510876 -0.67594336 3.9510876 -3.5625 4.0625 C-3.5625 0.08689024 -3.5625 0.08689024 0 0 Z " fill="#111419" transform="translate(1400.5625,392.9375)"/>
<path d="M0 0 C0.33 0.66 0.66 1.32 1 2 C0.34 2.66 -0.32 3.32 -1 4 C-5.875 2.25 -5.875 2.25 -7 0 C-3.88407501 -1.03864166 -2.9737344 -1.09036928 0 0 Z " fill="#1F2226" transform="translate(1193,628)"/>
<path d="M0 0 C1.5 1 1.5 1 3 3 C3.27345479 5.71846235 3.13491285 8.25677199 3 11 C0.97144841 8.97144841 -0.00835839 7.66980434 -1 5 C-0.625 2.25 -0.625 2.25 0 0 Z " fill="#35373A" transform="translate(2140,539)"/>
<path d="M0 0 C1.33333333 0 2.66666667 0 4 0 C4.1875 2.875 4.1875 2.875 4 6 C3.01 6.66 2.02 7.32 1 8 C-1.125 3.375 -1.125 3.375 0 0 Z " fill="#1D2024" transform="translate(2114,492)"/>
<path d="M0 0 C0.66 0 1.32 0 2 0 C2 2.31 2 4.62 2 7 C0.68 7.33 -0.64 7.66 -2 8 C-1.125 1.125 -1.125 1.125 0 0 Z " fill="#222529" transform="translate(1765,699)"/>
<path d="M0 0 C2 0 4 0 6 0 C4.95125002 2.62187494 4.35068687 3.79371361 1.875 5.25 C1.25625 5.4975 0.6375 5.745 0 6 C-0.66 5.34 -1.32 4.68 -2 4 C-1.34 2.68 -0.68 1.36 0 0 Z " fill="#212429" transform="translate(1500,682)"/>
<path d="M0 0 C2 3 2 3 1.625 5.6875 C1.41875 6.450625 1.2125 7.21375 1 8 C0.01 7.34 -0.98 6.68 -2 6 C-2.99 6.495 -2.99 6.495 -4 7 C-3.39816251 4.97954558 -2.72693904 2.97888961 -2 1 C-1.34 0.67 -0.68 0.34 0 0 Z " fill="#292D30" transform="translate(1940,526)"/>
<path d="M0 0 C1.25541557 3.76624671 0.37061958 5.37188934 -1 9 C-1.99 8.34 -2.98 7.68 -4 7 C-3.39816251 4.97954558 -2.72693904 2.97888961 -2 1 C-1.34 0.67 -0.68 0.34 0 0 Z " fill="#202327" transform="translate(1853,507)"/>
<path d="M0 0 C-0.33 1.98 -0.66 3.96 -1 6 C-2.65 5.67 -4.3 5.34 -6 5 C-6.33 4.01 -6.66 3.02 -7 2 C-4.35261084 0.5393715 -3.10551666 0 0 0 Z " fill="#2D3135" transform="translate(1447,760)"/>
<path d="M0 0 C0.721875 0.391875 1.44375 0.78375 2.1875 1.1875 C1.8575 1.8475 1.5275 2.5075 1.1875 3.1875 C-1.6875 3.9375 -1.6875 3.9375 -4.8125 4.1875 C-5.8025 3.5275 -6.7925 2.8675 -7.8125 2.1875 C-3.50480769 -1.0125 -3.50480769 -1.0125 0 0 Z " fill="#292C2F" transform="translate(1741.8125,739.8125)"/>
<path d="M0 0 C0.66 0 1.32 0 2 0 C2 2.31 2 4.62 2 7 C-0.475 6.01 -0.475 6.01 -3 5 C-1.625 2.5 -1.625 2.5 0 0 Z " fill="#1C2125" transform="translate(1676,641)"/>
<path d="M0 0 C3 2 3 2 3.6875 4.625 C3.790625 5.40875 3.89375 6.1925 4 7 C3.34 7 2.68 7 2 7 C2 6.34 2 5.68 2 5 C0.35 5.33 -1.3 5.66 -3 6 C-2.01 4.02 -1.02 2.04 0 0 Z " fill="#25282B" transform="translate(2355,540)"/>
<path d="M0 0 C0.99 0.99 1.98 1.98 3 3 C2.67 3.66 2.34 4.32 2 5 C1.01 5.33 0.02 5.66 -1 6 C-1.66 6.66 -2.32 7.32 -3 8 C-3.625 6.125 -3.625 6.125 -4 4 C-3.34 3.34 -2.68 2.68 -2 2 C-1.34 2.33 -0.68 2.66 0 3 C0 2.01 0 1.02 0 0 Z " fill="#292C31" transform="translate(2108,533)"/>
<path d="M0 0 C0.99 0.33 1.98 0.66 3 1 C1.02 3.31 -0.96 5.62 -3 8 C-3.66 7.34 -4.32 6.68 -5 6 C-4.34 6 -3.68 6 -3 6 C-2.67 4.68 -2.34 3.36 -2 2 C-1.34 2 -0.68 2 0 2 C0 1.34 0 0.68 0 0 Z " fill="#272C2F" transform="translate(1303,480)"/>
<path d="M0 0 C0.66 0.33 1.32 0.66 2 1 C-0.64 3.97 -3.28 6.94 -6 10 C-6.99 9.34 -7.98 8.68 -9 8 C-6.03 5.36 -3.06 2.72 0 0 Z " fill="#D9DDDF" transform="translate(1317,471)"/>
<path d="M0 0 C1.32 1.32 2.64 2.64 4 4 C3.67 4.99 3.34 5.98 3 7 C1.2925002 5.71937515 -0.37373596 4.38232443 -2 3 C-2 2.34 -2 1.68 -2 1 C-1.34 0.67 -0.68 0.34 0 0 Z " fill="#21272A" transform="translate(2347,417)"/>
<path d="M0 0 C-0.8125 2.4375 -0.8125 2.4375 -2 5 C-2.99 5.33 -3.98 5.66 -5 6 C-5.33 4.68 -5.66 3.36 -6 2 C-3 0 -3 0 0 0 Z " fill="#212429" transform="translate(1928,395)"/>
<path d="M0 0 C1.32 0.99 2.64 1.98 4 3 C3.67 4.32 3.34 5.64 3 7 C1.68 6.34 0.36 5.68 -1 5 C-0.67 3.35 -0.34 1.7 0 0 Z " fill="#2A2B2D" transform="translate(1660,729)"/>
<path d="M0 0 C0.33 0.99 0.66 1.98 1 3 C-2.71888239 2.49287967 -5.73454239 1.88391785 -9 0 C-5.93109813 -1.53445094 -3.29905734 -0.54984289 0 0 Z " fill="#2F3135" transform="translate(2005,731)"/>
<path d="M0 0 C3 3.75 3 3.75 3 6 C1.68 6.33 0.36 6.66 -1 7 C-1.625 4.625 -1.625 4.625 -2 2 C-1.34 1.34 -0.68 0.68 0 0 Z " fill="#24282C" transform="translate(1653,718)"/>
<path d="M0 0 C2.25245881 2.68841859 3.88213958 4.64641875 5 8 C4.34 8.66 3.68 9.32 3 10 C1 7 1 7 1 4 C0.34 3.67 -0.32 3.34 -1 3 C-0.67 2.01 -0.34 1.02 0 0 Z " fill="#E6E9EB" transform="translate(2117,503)"/>
<path d="M0 0 C3.29148243 1.13499394 3.9959869 1.99283376 5.75 5.125 C6.1625 6.07375 6.575 7.0225 7 8 C6.34 8.66 5.68 9.32 5 10 C3.33333333 6.66666667 1.66666667 3.33333333 0 0 Z " fill="#212427" transform="translate(2081,493)"/>
<path d="M0 0 C1.85776765 3.13498292 2.20140476 5.37471432 2 9 C1.01 9.495 1.01 9.495 0 10 C-0.66 7.69 -1.32 5.38 -2 3 C-1.34 3 -0.68 3 0 3 C0 2.01 0 1.02 0 0 Z " fill="#22262A" transform="translate(1945,456)"/>
<path d="M0 0 C2.97 0.99 5.94 1.98 9 3 C8.01 3.99 7.02 4.98 6 6 C3.97945196 4.35830472 1.97956942 2.69088222 0 1 C0 0.67 0 0.34 0 0 Z " fill="#2C2E31" transform="translate(1218,438)"/>
<path d="M0 0 C0.33 0.66 0.66 1.32 1 2 C1.66 2 2.32 2 3 2 C3.33 1.34 3.66 0.68 4 0 C4.33 1.65 4.66 3.3 5 5 C4.01 5.33 3.02 5.66 2 6 C1.01 5.01 0.02 4.02 -1 3 C-0.67 2.01 -0.34 1.02 0 0 Z " fill="#212224" transform="translate(1179,400)"/>
<path d="M0 0 C1.76462683 3.08809695 2 4.23312136 2 8 C0.0625 7.1875 0.0625 7.1875 -2 6 C-2.33 5.01 -2.66 4.02 -3 3 C-2.01 2.01 -1.02 1.02 0 0 Z " fill="#202327" transform="translate(2053,393)"/>
<path d="M0 0 C0.33 1.65 0.66 3.3 1 5 C-0.65 4.67 -2.3 4.34 -4 4 C-4 3.34 -4 2.68 -4 2 C-5.32 1.67 -6.64 1.34 -8 1 C-2.25 0 -2.25 0 0 0 Z " fill="#252A2D" transform="translate(2042,746)"/>
<path d="M0 0 C0.99 0 1.98 0 3 0 C3.41176754 3.60296594 3.1535853 4.78402067 1 7.8125 C0.34 8.534375 -0.32 9.25625 -1 10 C-0.67 6.7 -0.34 3.4 0 0 Z " fill="#1F2227" transform="translate(1761,710)"/>
<path d="M0 0 C2.375 0.3125 2.375 0.3125 5 1 C5.66 1.99 6.32 2.98 7 4 C5.68 4.33 4.36 4.66 3 5 C3 4.34 3 3.68 3 3 C2.01 3.33 1.02 3.66 0 4 C0 2.66666667 0 1.33333333 0 0 Z " fill="#2E3031" transform="translate(1729,637)"/>
<path d="M0 0 C2.475 0.495 2.475 0.495 5 1 C5 2.65 5 4.3 5 6 C3.0625 5.25 3.0625 5.25 1 4 C0.25 1.875 0.25 1.875 0 0 Z " fill="#292B2D" transform="translate(1746,625)"/>
<path d="M0 0 C0.33 0.99 0.66 1.98 1 3 C-1.64 2.67 -4.28 2.34 -7 2 C-7 1.34 -7 0.68 -7 0 C-4.3333581 -1.33332095 -2.83319697 -0.67102033 0 0 Z " fill="#E6E9EC" transform="translate(2226,579)"/>
<path d="M0 0 C0.33 0.99 0.66 1.98 1 3 C0.67 3.66 0.34 4.32 0 5 C-2.31 4.67 -4.62 4.34 -7 4 C-4.61426621 2.10786631 -2.92824652 0.97608217 0 0 Z " fill="#2A2C2C" transform="translate(1615,570)"/>
<path d="M0 0 C2 4 2 4 1.125 7.25 C0.75375 8.1575 0.3825 9.065 0 10 C-0.66 9.67 -1.32 9.34 -2 9 C-1.34 6.03 -0.68 3.06 0 0 Z " fill="#2D2F32" transform="translate(1870,532)"/>
<path d="M0 0 C3.24208567 0.35049575 4.61527704 0.56221181 6.8125 3.0625 C7.204375 3.701875 7.59625 4.34125 8 5 C6.68 5 5.36 5 4 5 C1.75 2.5 1.75 2.5 0 0 Z " fill="#292C31" transform="translate(1258,528)"/>
<path d="M0 0 C0.66 0.99 1.32 1.98 2 3 C1.01 3.99 0.02 4.98 -1 6 C-1.99 5.67 -2.98 5.34 -4 5 C-2.25 1.125 -2.25 1.125 0 0 Z " fill="#23252A" transform="translate(1292,490)"/>
<path d="M0 0 C0.66 0.33 1.32 0.66 2 1 C-2 7.57142857 -2 7.57142857 -6 9 C-5.52797514 4.75177626 -3.03344482 2.80010291 0 0 Z " fill="#E5E7E8" transform="translate(1337,453)"/>
<path d="M0 0 C0.90105469 0.19464844 1.80210938 0.38929688 2.73046875 0.58984375 C3.41753906 0.74582031 4.10460938 0.90179687 4.8125 1.0625 C4.8125 1.3925 4.8125 1.7225 4.8125 2.0625 C3.20870659 2.11666188 1.60438594 2.15536638 0 2.1875 C-0.89332031 2.21070313 -1.78664063 2.23390625 -2.70703125 2.2578125 C-5.1875 2.0625 -5.1875 2.0625 -8.1875 0.0625 C-4.80475734 -1.06508089 -3.41971777 -0.75500262 0 0 Z " fill="#101318" transform="translate(2011.1875,731.9375)"/>
<path d="M0 0 C-4.1795645 2.78637633 -6.14668677 1.79562512 -11 1 C-7.2297564 -1.56376565 -4.32597804 -0.83191885 0 0 Z " fill="#282C2F" transform="translate(1728,613)"/>
<path d="M0 0 C0.99 0.33 1.98 0.66 3 1 C2.67 2.32 2.34 3.64 2 5 C1.34 5 0.68 5 0 5 C0 5.66 0 6.32 0 7 C-0.66 7 -1.32 7 -2 7 C-2 5.35 -2 3.7 -2 2 C-1.34 1.67 -0.68 1.34 0 1 C0 0.67 0 0.34 0 0 Z " fill="#1E2126" transform="translate(1837,549)"/>
<path d="M0 0 C2.31 1.98 4.62 3.96 7 6 C6.34 6.66 5.68 7.32 5 8 C1.91763635 5.21592961 1.04793663 4.19174654 0 0 Z " fill="#3C4043" transform="translate(1270,536)"/>
<path d="M0 0 C0.66 0.99 1.32 1.98 2 3 C0.71034824 4.37562854 -0.62689293 5.70766393 -2 7 C-2.66 7 -3.32 7 -4 7 C-2.92598892 4.08482708 -2.22189824 2.22189824 0 0 Z " fill="#202428" transform="translate(1623,529)"/>
<path d="M0 0 C0.99 0 1.98 0 3 0 C3.33 2.31 3.66 4.62 4 7 C3.01 7.495 3.01 7.495 2 8 C1.34 5.36 0.68 2.72 0 0 Z " fill="#23262B" transform="translate(1953,488)"/>
<path d="M0 0 C3.37462715 0.54723683 5.08235 1.0549 8 3 C8 3.66 8 4.32 8 5 C6.02 5 4.04 5 2 5 C2 4.01 2 3.02 2 2 C1.34 1.34 0.68 0.68 0 0 Z " fill="#0F1418" transform="translate(1269,481)"/>
<path d="M0 0 C0.66 1.32 1.32 2.64 2 4 C-0.375 4.625 -0.375 4.625 -3 5 C-3.66 4.34 -4.32 3.68 -5 3 C-3.35 2.01 -1.7 1.02 0 0 Z " fill="#1F2227" transform="translate(1310,473)"/>
<path d="M0 0 C1.32 0 2.64 0 4 0 C4.66 1.65 5.32 3.3 6 5 C5.01 5 4.02 5 3 5 C3 4.34 3 3.68 3 3 C2.01 3.33 1.02 3.66 0 4 C0 2.68 0 1.36 0 0 Z " fill="#22252A" transform="translate(1169,393)"/>
<path d="M0 0 C1.42944945 2.35438733 2.08661261 3.48032433 1.625 6.25 C1.41875 6.8275 1.2125 7.405 1 8 C0.01 8 -0.98 8 -2 8 C-1.34 5.36 -0.68 2.72 0 0 Z " fill="#1E2126" transform="translate(1614,744)"/>
<path d="M0 0 C0 0.66 0 1.32 0 2 C0.66 2.33 1.32 2.66 2 3 C-0.25 3.6875 -0.25 3.6875 -3 4 C-5.3125 2.5625 -5.3125 2.5625 -7 1 C-4.50935112 0.31292445 -2.62113708 0 0 0 Z " fill="#2E3235" transform="translate(1499,707)"/>
<path d="M0 0 C0.66 0 1.32 0 2 0 C2.33 1.32 2.66 2.64 3 4 C0.525 5.485 0.525 5.485 -2 7 C-2.66 6.34 -3.32 5.68 -4 5 C-3.01 4.67 -2.02 4.34 -1 4 C-0.26676204 1.98491642 -0.26676204 1.98491642 0 0 Z " fill="#ECEFF0" transform="translate(1621,561)"/>
<path d="M0 0 C0.66 0.33 1.32 0.66 2 1 C1.67 1.99 1.34 2.98 1 4 C0.34 4 -0.32 4 -1 4 C-1 4.66 -1 5.32 -1 6 C-2.32 5.34 -3.64 4.68 -5 4 C-3.35 2.68 -1.7 1.36 0 0 Z " fill="#222529" transform="translate(2341,558)"/>
<path d="M0 0 C0.99 0.33 1.98 0.66 3 1 C2.67 2.32 2.34 3.64 2 5 C1.34 5 0.68 5 0 5 C0 5.99 0 6.98 0 8 C-0.66 8 -1.32 8 -2 8 C-1.34 5.36 -0.68 2.72 0 0 Z " fill="#2E3235" transform="translate(1897,448)"/>
<path d="M0 0 C0 0.66 0 1.32 0 2 C0.99 2.33 1.98 2.66 3 3 C-3.625 3.25 -3.625 3.25 -7 1 C-4 0 -4 0 0 0 Z " fill="#0E1414" transform="translate(1810,748)"/>
<path d="M0 0 C0.99 0.33 1.98 0.66 3 1 C1.69593116 3.01920337 0.36176581 5.01924973 -1 7 C-1.33 7 -1.66 7 -2 7 C-2 5.35 -2 3.7 -2 2 C-1.34 2 -0.68 2 0 2 C0 1.34 0 0.68 0 0 Z " fill="#E5E6E8" transform="translate(1526,684)"/>
<path d="M0 0 C1.32 0.33 2.64 0.66 4 1 C4 2.65 4 4.3 4 6 C3.01 6.33 2.02 6.66 1 7 C0.67 4.69 0.34 2.38 0 0 Z " fill="#202328" transform="translate(1667,657)"/>
<path d="M0 0 C0.6875 1.8125 0.6875 1.8125 1 4 C-0.4375 5.75 -0.4375 5.75 -2 7 C-2.66 5.02 -3.32 3.04 -4 1 C-2.68 0.67 -1.36 0.34 0 0 Z " fill="#212429" transform="translate(1764,646)"/>
<path d="M0 0 C1.65 1.65 3.3 3.3 5 5 C4.67 5.66 4.34 6.32 4 7 C2.68 6.67 1.36 6.34 0 6 C0 4.02 0 2.04 0 0 Z " fill="#2A2B2C" transform="translate(2131,571)"/>
<path d="M0 0 C2.1519437 3.22791555 2.20086443 4.28400809 2 8 C0.68 8 -0.64 8 -2 8 C-1.34 5.36 -0.68 2.72 0 0 Z " fill="#202529" transform="translate(1830,568)"/>
<path d="M0 0 C0.66 0.66 1.32 1.32 2 2 C1.625 5.125 1.625 5.125 1 8 C0.34 7.67 -0.32 7.34 -1 7 C-1.75 4.5625 -1.75 4.5625 -2 2 C-1.34 1.34 -0.68 0.68 0 0 Z " fill="#E2E6E9" transform="translate(2364,512)"/>
<path d="M0 0 C3.465 1.98 3.465 1.98 7 4 C5.02 4.99 5.02 4.99 3 6 C1.5 4.6875 1.5 4.6875 0 3 C0 2.01 0 1.02 0 0 Z " fill="#222629" transform="translate(1267,480)"/>
<path d="M0 0 C1.32 0 2.64 0 4 0 C4.33 1.65 4.66 3.3 5 5 C4.01 5 3.02 5 2 5 C1.34 4.34 0.68 3.68 0 3 C0 2.01 0 1.02 0 0 Z " fill="#222627" transform="translate(1236,452)"/>
<path d="M0 0 C4.875 4.75 4.875 4.75 6 7 C4.125 6.875 4.125 6.875 2 6 C0.75 2.9375 0.75 2.9375 0 0 Z " fill="#EAEDF0" transform="translate(2347,422)"/>
<path d="M0 0 C1.32 0.66 2.64 1.32 4 2 C3.67 3.32 3.34 4.64 3 6 C1.68 4.68 0.36 3.36 -1 2 C-0.67 1.34 -0.34 0.68 0 0 Z " fill="#282B2F" transform="translate(1200,419)"/>
<path d="M0 0 C4.75 1.875 4.75 1.875 7 3 C7 3.66 7 4.32 7 5 C1.25 3.25 1.25 3.25 -1 1 C-0.67 0.67 -0.34 0.34 0 0 Z " fill="#2A2E31" transform="translate(2324,403)"/>
</svg>
